{"title":"Green Zone","uid":6711567,"size":1253840396,"categoryP":"video","categoryS":"movies","magnet":"?xt=urn:btih:428fd464165ed2924af0f7b17e77c553ab1494ff&amp;dn=Green+Zone&amp;tr=udp%3A%2F%2Ftracker.openbittorrent.com%3A80&amp;tr=udp%3A%2F%2Fopen.demonii.com%3A1337&amp;tr=udp%3A%2F%2Ftracker.coppersurfer.tk%3A6969&amp;tr=udp%3A%2F%2Fexodus.desync.com%3A6969","seeders":0,"leechers":0,"uploader":"Reaper_Silently","files":1,"time":1317377487,"description":"\nDiscovering covert and faulty intelligence causes a\nU.S. Army officer to go rogue as he hunts for\nWeapons of Mass Destruction in an unstable region.\n\n \n\nDirector: \nPaul Greengrass\n\n Writers: \nBrian Helgeland, Rajiv Chandrasekaran (book)\n \nStars:\n Matt Damon, Jason Isaacs and Greg Kinnear\n\n \n\n\nudp://tracker.openbittorrent.com:80/announce\n\nudp://tracker.publicbt.com:80/announce\n &lt;a href=&quot;\nhttp://the.illusionist.tracker.prq.to/announce&quot; rel=&quot;nofollow&quot; target=&quot;_NEW&quot;&gt;\nhttp://the.illusionist.tracker.prq.to/announce&lt;/a&gt;\n &lt;a href=&quot;\nhttp://exodus.desync.com/announce&quot; rel=&quot;nofollow&quot; target=&quot;_NEW&quot;&gt;\nhttp://exodus.desync.com/announce&lt;/a&gt;\n &lt;a href=&quot;\nhttp://gemini.tracker.prq.to/announce&quot; rel=&quot;nofollow&quot; target=&quot;_NEW&quot;&gt;\nhttp://gemini.tracker.prq.to/announce&lt;/a&gt;\n\n\nHashcode: 428FD464165ED2924AF0F7B17E77C553AB1494FF\n\nGeneral\n\nFormat : AVI\nFormat/Info : Audio Video Interleave\nFile size : 1.17 GiB\nDuration : 1h 49mn\nOverall bit rate : 1 520 Kbps\nMovie name : GREEN_ZONE.Title23.DVDRip\nWriting application : Lavf52.33.0\nOriginal source form/Name : GREEN_ZONE\n\nVideo\n\nID : 0\nFormat : AVC\nFormat/Info : Advanced Video Codec\nFormat profile : &lt;a class=&quot;__cf_email__&quot; href=&quot;/cdn-cgi/l/email-protection&quot; data-cfemail=&quot;56143725333a3f3833161a677865&quot;&gt;[email&amp;#160;protected]&lt;/a&gt;&lt;script data-cfhash='f9e31' type=&quot;text/javascript&quot;&gt;\n/* &lt;![CDATA[ */!function(){try{var t=&quot;currentScript&quot;in document?document.currentScript:function(){for(var t=document.getElementsByTagName(&quot;script&quot;),e=t.length;e--;)if(t[e].getAttribute(&quot;data-cfhash&quot;))return t[e]}();if(t&amp;&amp;t.previousSibling){var e,r,n,i,c=t.previousSibling,a=c.getAttribute(&quot;data-cfemail&quot;);if(a){for(e=&quot;&quot;,r=parseInt(a.substr(0,2),16),n=2;a.length-n;n+=2)i=parseInt(a.substr(n,2),16)^r,e+=String.fromCharCode(i);e=document.createTextNode(e),c.parentNode.replaceChild(e,c)}t.parentNode.removeChild(t);}}catch(u){}}()/* ]]&gt; */&lt;/script&gt;\nFormat settings, CABAC : No\nFormat settings, ReFrames : 1 frame\nCodec ID : H264\nDuration : 1h 49mn\nBit rate : 1 125 Kbps\nNominal bit rate : 1 013 Kbps\nWidth : 1 024 pixels\nHeight : 428 pixels\nDisplay aspect ratio : 2.40:1\nFrame rate : 25.000 fps\nColor space : YUV\nChroma subsampling : 4:2:0\nBit depth : 8 bits\nScan type : Progressive\nBits/(Pixel*Frame) : 0.103\nStream size : 885 MiB (74%)\nWriting library : x264 core 67\n\nAudio\n\nID : 1\nFormat : AC-3\nFormat/Info : Audio Coding 3\nMode extension : CM (complete main)\nCodec ID : 2000\nDuration : 1h 49mn\nBit rate mode : Constant\nBit rate : 384 Kbps\nChannel(s) : 6 channels\nChannel positions : Front: L C R, Side: L R, LFE\nSampling rate : 48.0 KHz\nBit depth : 16 bits\nCompression mode : Lossy\nStream size : 302 MiB (25%)\nAlignment : Aligned on interleaves\nInterleave, duration : 32 ms (0.80 video frame)\n\n\nSEED PLEASE!!!\n\nCheerss..\n\nR_S","torrent":{"xt":"urn:btih:428fd464165ed2924af0f7b17e77c553ab1494ff","amp;dn":"Green+Zone","amp;tr":["udp%3A%2F%2Ftracker.openbittorrent.com%3A80","udp%3A%2F%2Fopen.demonii.com%3A1337","udp%3A%2F%2Ftracker.coppersurfer.tk%3A6969","udp%3A%2F%2Fexodus.desync.com%3A6969"],"infoHash":"428fd464165ed2924af0f7b17e77c553ab1494ff","infoHashBuffer":{"type":"Buffer","data":[66,143,212,100,22,94,210,146,74,240,247,177,126,119,197,83,171,20,148,255]},"announce":[],"urlList":[]}}